<?xml version="1.0" standalone="no"?><!DOCTYPE svg PUBLIC "-//W3C//DTD SVG 1.1//EN" "http://www.w3.org/Graphics/SVG/1.1/DTD/svg11.dtd"><svg t="1584977795695" class="icon" viewBox="0 0 1024 1024" version="1.1" xmlns="http://www.w3.org/2000/svg" p-id="1933" width="48" height="48" xmlns:xlink="http://www.w3.org/1999/xlink"><defs><style type="text/css"></style></defs><path d="M952.6 916.6L775.7 739.4c59.7-71.4 98.4-169.3 98.6-269 0-223.7-181.3-404.9-404.9-405-223.6 0-404.9 181.3-404.9 405s181.3 404.9 404.9 405c57.9 0 113.1-12.2 163-34.1 12.1-5.3 17.6-19.5 12.3-31.6-5.3-12.1-19.5-17.6-31.6-12.3-43.9 19.3-92.5 30.1-143.6 30.1-98.6 0-187.7-39.9-252.4-104.5-64.8-64.9-104.7-154-104.7-252.6S152.3 282.7 216.9 218c64.7-64.6 153.7-104.5 252.4-104.5 98.6 0 187.7 39.9 252.4 104.5 64.6 64.7 104.5 153.8 104.5 252.4 0.2 91.2-38.4 184.2-95 247.1-1.1 1.3-2.1 2.6-2.9 4-0.8 0.6-1.7 1.3-2.4 2.1-9.4 9.4-9.4 24.6 0 33.9l192.7 193.1c9.4 9.4 24.6 9.4 33.9 0 9.4-9.4 9.4-24.6 0.1-34z" fill="#555555" p-id="1934"></path></svg>